# xmcd
#
# Track frame offsets: 
#        150
#        60140
#        88995
#        106067
#        179566
#
# Disc length: 2785 seconds
#
# Revision: 0
# Processed by: cddbd v1.5.2PL0 Copyright (c) Steve Scherf et al.
# Submitted via: ExactAudioCopyFreeDBPlugin 1.0
#
DISCID=370adf05
DTITLE=Various Artist - The Black Caucus Concert - The First Annual B
DTITLE=enefit Concert For The Congressional Black Caucus
DYEAR=1975
DGENRE=Soul
TTITLE0=Kool and The Gang - Wild And Peaceful
TTITLE1=Curtis Mayfield - Give Me Your Love
TTITLE2=Gladys Knight and The Pips - On And On
TTITLE3=War - Gypsy Man
TTITLE4=Jimmy Witherspoon - Goin' Down Slow
EXTD=
EXTT0=
EXTT1=
EXTT2=
EXTT3=
EXTT4=
PLAYORDER=
